<svg width="208" height="38" viewBox="0 0 208 38" fill="none" xmlns="http://www.w3.org/2000/svg">
<g clip-path="url(#clip0_246_54)">
<path d="M24.4591 21.1683L13.0971 26.6203V35L11.5093 35L7.6779 22.6974L13.9328 19.7279H1.84251L0 13.7913L22.7271 3L24.5592 8.889L11.882 14.9386L22.7105 15.543L24.4591 21.1683Z" fill="#E21500"/>
</g>
<path d="M42.9392 27V7.4H56.9952V10.396H46.2992V15.968H55.5952V18.992H46.2992V27H42.9392ZM63.7916 27.28C60.5716 27.28 59.0316 25.096 59.0316 22.072V13H62.2516V21.596C62.2516 23.612 63.0916 24.648 64.6596 24.648H64.8836C66.5636 24.648 68.0476 22.996 68.0476 20.7V13H71.2676V27H68.0476V24.704C67.3476 26.16 65.8356 27.28 63.7916 27.28ZM75.195 27V13H78.359V15.912C78.919 13.98 80.459 12.86 82.419 12.86H83.371V15.884H82.167C79.731 15.884 78.415 17.256 78.415 19.804V27H75.195ZM85.9137 27V13H89.1337V27H85.9137ZM85.7737 10.872V7.4H89.2737V10.872H85.7737ZM99.1258 27.28C95.1218 27.28 92.2658 24.256 92.2658 20C92.2658 15.744 95.1218 12.72 99.1258 12.72C103.158 12.72 106.014 15.744 106.014 20C106.014 24.256 103.158 27.28 99.1258 27.28ZM95.4858 20C95.4858 22.94 96.9418 24.648 99.0138 24.648H99.2378C101.338 24.648 102.766 22.94 102.766 20C102.766 17.06 101.338 15.352 99.2378 15.352H99.0138C96.9418 15.352 95.4858 17.06 95.4858 20ZM114.057 27.28C110.305 27.28 108.121 25.404 108.121 22.492H111.397C111.453 23.948 112.573 24.732 114.057 24.732H114.281C115.569 24.732 116.493 24.116 116.493 23.164C116.493 22.352 116.017 21.848 114.841 21.596L112.909 21.176C110.277 20.56 108.681 19.356 108.681 17.032C108.681 14.4 110.977 12.72 114.169 12.72C117.809 12.72 119.825 14.596 119.825 17.424H116.605C116.465 16.192 115.737 15.268 114.225 15.268H114.001C112.769 15.268 111.873 15.856 111.873 16.836C111.873 17.676 112.517 18.124 113.777 18.404L115.793 18.88C118.229 19.44 119.685 20.672 119.685 23.024C119.685 25.46 117.613 27.28 114.057 27.28ZM126.717 27.28C124.141 27.28 122.125 25.6 122.125 23.164C122.125 20.056 124.673 18.852 127.249 18.656L130.917 18.348V17.956C130.917 16.388 129.937 15.352 128.369 15.352H128.145C126.745 15.352 125.737 16.164 125.625 17.228H122.405C122.629 14.624 124.925 12.72 128.257 12.72C131.869 12.72 134.053 14.792 134.053 17.872V23.92C134.053 24.76 134.053 26.02 134.193 27H131.169C131.057 26.468 131.029 25.488 131.029 25.068C130.301 26.3 128.733 27.28 126.717 27.28ZM125.317 22.968C125.317 23.948 126.157 24.648 127.277 24.648H127.501C129.153 24.648 130.917 23.332 130.917 21.568V20.728L127.669 21.036C126.465 21.148 125.317 21.764 125.317 22.968ZM144.959 27V7.4H151.819C157.503 7.4 161.395 10.872 161.395 17.2C161.395 23.528 157.587 27 151.903 27H144.959ZM148.319 24.004H151.539C155.487 24.004 158.035 22.044 158.035 17.2C158.035 12.356 155.487 10.396 151.539 10.396H148.319V24.004ZM170.684 27.28C166.68 27.28 163.824 24.256 163.824 20C163.824 15.744 166.68 12.72 170.684 12.72C174.716 12.72 177.572 15.744 177.572 20C177.572 24.256 174.716 27.28 170.684 27.28ZM167.044 20C167.044 22.94 168.5 24.648 170.572 24.648H170.796C172.896 24.648 174.324 22.94 174.324 20C174.324 17.06 172.896 15.352 170.796 15.352H170.572C168.5 15.352 167.044 17.06 167.044 20ZM186.623 27.28C182.591 27.28 179.903 24.312 179.903 20C179.903 15.688 182.591 12.72 186.623 12.72C190.067 12.72 192.391 14.484 192.671 17.788H189.451C189.227 16.332 188.275 15.352 186.735 15.352H186.511C184.159 15.352 183.123 17.508 183.123 20C183.123 22.492 184.159 24.648 186.511 24.648H186.735C188.275 24.648 189.227 23.668 189.451 22.212H192.671C192.391 25.516 190.067 27.28 186.623 27.28ZM200.627 27.28C196.875 27.28 194.691 25.404 194.691 22.492H197.967C198.023 23.948 199.143 24.732 200.627 24.732H200.851C202.139 24.732 203.063 24.116 203.063 23.164C203.063 22.352 202.587 21.848 201.411 21.596L199.479 21.176C196.847 20.56 195.251 19.356 195.251 17.032C195.251 14.4 197.547 12.72 200.739 12.72C204.379 12.72 206.395 14.596 206.395 17.424H203.175C203.035 16.192 202.307 15.268 200.795 15.268H200.571C199.339 15.268 198.443 15.856 198.443 16.836C198.443 17.676 199.087 18.124 200.347 18.404L202.363 18.88C204.799 19.44 206.255 20.672 206.255 23.024C206.255 25.46 204.183 27.28 200.627 27.28Z" fill="black"/>
<defs>
<clipPath id="clip0_246_54">
<rect width="24.5592" height="32" fill="white" transform="translate(0 3)"/>
</clipPath>
</defs>
</svg>
